<?xml version="1.0" encoding="utf-8"?>
<!-- generated at drububu.com  -->
<!DOCTYPE svg PUBLIC "-//W3C//DTD SVG 1.1//EN" "http://www.w3.org/Graphics/SVG/1.1/DTD/svg11.dtd">
<svg version="1.1" preserveAspectRatio="xMinYMin meet" xmlns="http://www.w3.org/2000/svg" xmlns:xlink="http://www.w3.org/1999/xlink" x="0px" y="0px" width="16px" height="16px" viewBox="0 0 16 16">
<path d="M0 0h1v4h-1z" fill="rgb(187,238,255)"/>
<path d="M5 0h1v5h-1z" fill="rgb(187,238,255)"/>
<path d="M8 0h1v4h1v4h-1v7h-1z" fill="rgb(187,238,255)"/>
<path d="M14 0h1v15h-1v-7h-1v-4h1z" fill="rgb(187,238,255)"/>
<path d="M1 1h1v3h-1z" fill="rgb(0,0,0)"/>
<path d="M6 1h1v5h-1v6h-1v4h-1v-5h1v-6h1z" fill="rgb(0,0,0)"/>
<path d="M9 1h1v3h-1z" fill="rgb(0,0,0)"/>
<path d="M15 1h1v15h-1z" fill="rgb(0,0,0)"/>
<path d="M1 4h1v4h-1z" fill="rgb(187,238,255)"/>
<path d="M2 4h1v4h-1z" fill="rgb(0,0,0)"/>
<path d="M10 4h1v4h-1z" fill="rgb(0,0,0)"/>
<path d="M4 5h1v6h-1z" fill="rgb(187,238,255)"/>
<path d="M2 8h1v3h1v4h-1v-3h-1z" fill="rgb(187,238,255)"/>
<path d="M3 8h1v3h-1z" fill="rgb(0,0,0)"/>
<path d="M9 8h1v8h-1z" fill="rgb(0,0,0)"/>
<path d="M10 8h1v4h-1z" fill="rgb(187,238,255)"/>
<path d="M11 8h1v4h-1z" fill="rgb(0,0,0)"/>
<path d="M12 8h1v4h-1z" fill="rgb(187,238,255)"/>
<path d="M13 8h1v4h-1z" fill="rgb(0,0,0)"/>
<path d="M11 12h1v3h-1z" fill="rgb(187,238,255)"/>
<path d="M12 12h1v4h-1z" fill="rgb(0,0,0)"/>
</svg>
