<?xml version="1.0" standalone="no"?>
<!DOCTYPE svg PUBLIC "-//W3C//DTD SVG 20010904//EN"
 "http://www.w3.org/TR/2001/REC-SVG-20010904/DTD/svg10.dtd">
<svg version="1.0" xmlns="http://www.w3.org/2000/svg"
 width="700.000000pt" height="700.000000pt" viewBox="0 0 700.000000 700.000000"
 preserveAspectRatio="xMidYMid meet">
<metadata>
Created by potrace 1.14, written by Peter Selinger 2001-2017
</metadata>
<g transform="translate(0.000000,700.000000) scale(0.100000,-0.100000)"
fill="#000000" stroke="none">
<path d="M440 5905 l0 -655 215 0 215 0 0 -875 0 -875 220 0 220 0 0 -655 0
-655 220 0 220 0 0 -1095 0 -1095 220 0 220 0 0 875 0 875 220 0 220 0 0 1310
0 1310 215 0 215 0 0 1095 0 1095 -220 0 -220 0 0 -875 0 -875 -215 0 -215 0
0 -1310 0 -1310 -220 0 -220 0 0 655 0 655 -220 0 -220 0 0 875 0 875 -215 0
-215 0 0 655 0 655 -220 0 -220 0 0 -655z"/>
<path d="M3940 5905 l0 -655 215 0 215 0 0 -875 0 -875 -215 0 -215 0 0 -1750
0 -1750 221 0 221 0 -7 1750 -7 1750 221 0 221 0 0 -875 0 -875 220 0 220 0 0
-875 0 -875 220 0 220 0 0 875 0 875 220 0 220 0 0 875 0 875 -220 0 -220 0 0
-875 0 -875 -220 0 -220 0 0 875 0 875 -220 0 -220 0 0 875 0 875 -215 0 -215
0 0 655 0 655 -220 0 -220 0 0 -655z"/>
<path d="M6560 3280 l0 -3280 220 0 220 0 0 3280 0 3280 -220 0 -220 0 0
-3280z"/>
</g>
</svg>
